<svg version="1.1" xmlns="http://www.w3.org/2000/svg" xmlns:xlink="http://www.w3.org/1999/xlink" x="0px" y="0px"
	 viewBox="0 0 150 250" style="enable-background:new 0 0 150 250;" xml:space="preserve">
<style type="text/css">
	.st0{fill:#D1D3D4;}
	.st1{fill:#9B8579;}
</style>
<g>
	<polygon points="1227.1,493.3 1215,507.1 1202.9,493.3 1202.9,430.6 1215,416.8 1227.1,430.6" transform="translate(-1092, -400)"/>
</g>
<g>
	<polygon points="1130.6,493.3 1118.5,507.1 1106.3,493.3 1106.3,430.6 1118.5,416.8 1130.6,430.6" transform="translate(-1092, -400)"/>
</g>
<g>
	<polygon points="1135.4,522.3 1121.6,510.2 1135.4,498.1 1198.1,498.1 1211.9,510.2 1198.1,522.3" transform="translate(-1092, -400)"/>
</g>
<g>
	<polygon class="st0" points="1135.4,425.8 1121.6,413.7 1135.4,401.6 1198.1,401.6 1211.9,413.7 1198.1,425.8" transform="translate(-1092, -400)"/>
</g>
<g>
	<polygon class="st0" points="1106.3,529.8 1118.5,516 1130.6,529.8 1130.6,592.6 1118.5,606.4 1106.3,592.6" transform="translate(-1092, -400)"/>
</g>
<g>
	<polygon points="1202.9,529.8 1215,516 1227.1,529.8 1227.1,592.6 1215,606.4 1202.9,592.6" transform="translate(-1092, -400)"/>
</g>
<g>
	<polygon class="st0" points="1198.1,597.3 1211.9,609.5 1198.1,621.6 1135.4,621.6 1121.6,609.5 1135.4,597.3" transform="translate(-1092, -400)"/>
</g>
</svg>
