<svg version="1.1" xmlns="http://www.w3.org/2000/svg" xmlns:xlink="http://www.w3.org/1999/xlink" x="0px" y="0px"
	 viewBox="0 0 150 250" style="enable-background:new 0 0 150 250;" xml:space="preserve">
<style type="text/css">
	.st0{fill:#D1D3D4;}
	.st1{fill:#9B8579;}
</style>
<g>
	<polygon points="769.1,493.3 757,507.1 744.9,493.3 744.9,430.6 757,416.8 769.1,430.6" transform="translate(-634, -400)"/>
</g>
<g>
	<polygon class="st0" points="672.6,493.3 660.5,507.1 648.4,493.3 648.4,430.6 660.5,416.8 672.6,430.6" transform="translate(-634, -400)"/>
</g>
<g>
	<polygon points="677.4,522.3 663.6,510.2 677.4,498.1 740.1,498.1 753.9,510.2 740.1,522.3" transform="translate(-634, -400)"/>
</g>
<g>
	<polygon points="677.4,425.8 663.6,413.7 677.4,401.6 740.1,401.6 753.9,413.7 740.1,425.8" transform="translate(-634, -400)"/>
</g>
<g>
	<polygon points="648.4,529.8 660.5,516 672.6,529.8 672.6,592.6 660.5,606.4 648.4,592.6" transform="translate(-634, -400)"/>
</g>
<g>
	<polygon class="st0" points="744.9,529.8 757,516 769.1,529.8 769.1,592.6 757,606.4 744.9,592.6" transform="translate(-634, -400)"/>
</g>
<g>
	<polygon points="740.1,597.3 753.9,609.5 740.1,621.6 677.4,621.6 663.6,609.5 677.4,597.3" transform="translate(-634, -400)"/>
</g>
</svg>
