<svg version="1.1" xmlns="http://www.w3.org/2000/svg" xmlns:xlink="http://www.w3.org/1999/xlink" x="0px" y="0px"
	 viewBox="0 0 150 250" style="enable-background:new 0 0 150 250;" xml:space="preserve">
<style type="text/css">
	.st0{fill:#D1D3D4;}
	.st1{fill:#9B8579;}
</style>
<g>
	<polygon points="769.1,760.5 757,774.3 744.9,760.5 744.9,697.8 757,684 769.1,697.8" transform="translate(-634, -667)"/>
</g>
<g>
	<polygon class="st0" points="672.6,760.5 660.5,774.3 648.4,760.5 648.4,697.8 660.5,684 672.6,697.8" transform="translate(-634, -667)"/>
</g>
<g>
	<polygon class="st0" points="677.4,789.6 663.6,777.4 677.4,765.3 740.1,765.3 753.9,777.4 740.1,789.6" transform="translate(-634, -667)"/>
</g>
<g>
	<polygon points="677.4,693 663.6,680.9 677.4,668.8 740.1,668.8 753.9,680.9 740.1,693" transform="translate(-634, -667)"/>
</g>
<g>
	<polygon class="st0" points="648.4,797 660.5,783.3 672.6,797 672.6,859.8 660.5,873.6 648.4,859.8" transform="translate(-634, -667)"/>
</g>
<g>
	<polygon points="744.9,797 757,783.3 769.1,797 769.1,859.8 757,873.6 744.9,859.8" transform="translate(-634, -667)"/>
</g>
<g>
	<polygon class="st0" points="740.1,864.6 753.9,876.7 740.1,888.8 677.4,888.8 663.6,876.7 677.4,864.6" transform="translate(-634, -667)"/>
</g>
</svg>
