<svg version="1.1" xmlns="http://www.w3.org/2000/svg" xmlns:xlink="http://www.w3.org/1999/xlink" x="0px" y="0px"
	 viewBox="0 0 150 250" style="enable-background:new 0 0 150 250;" xml:space="preserve">
<style type="text/css">
	.st0{fill:#D1D3D4;}
	.st1{fill:#9B8579;}
</style>
<g>
	<polygon points="998.1,760.5 986,774.3 973.9,760.5 973.9,697.8 986,684 998.1,697.8" transform="translate(-863, -667)"/>
</g>
<g>
	<polygon points="901.6,760.5 889.5,774.3 877.3,760.5 877.3,697.8 889.5,684 901.6,697.8" transform="translate(-863, -667)"/>
</g>
<g>
	<polygon points="906.4,789.6 892.6,777.4 906.4,765.3 969.1,765.3 982.9,777.4 969.1,789.6" transform="translate(-863, -667)"/>
</g>
<g>
	<polygon points="906.4,693 892.6,680.9 906.4,668.8 969.1,668.8 982.9,680.9 969.1,693" transform="translate(-863, -667)"/>
</g>
<g>
	<polygon points="877.3,797 889.5,783.3 901.6,797 901.6,859.8 889.5,873.6 877.3,859.8" transform="translate(-863, -667)"/>
</g>
<g>
	<polygon points="973.9,797 986,783.3 998.1,797 998.1,859.8 986,873.6 973.9,859.8" transform="translate(-863, -667)"/>
</g>
<g>
	<polygon points="969.1,864.6 982.9,876.7 969.1,888.8 906.4,888.8 892.6,876.7 906.4,864.6" transform="translate(-863, -667)"/>
</g>
</svg>
