<svg version="1.1" xmlns="http://www.w3.org/2000/svg" xmlns:xlink="http://www.w3.org/1999/xlink" x="0px" y="0px"
	 viewBox="0 0 150 250" style="enable-background:new 0 0 150 250;" xml:space="preserve">
<style type="text/css">
	.st0{fill:#D1D3D4;}
	.st1{fill:#9B8579;}
</style>
<g>
	<polygon points="540.1,493.3 528,507.1 515.9,493.3 515.9,430.6 528,416.8 540.1,430.6" transform="translate(-405, -400)"/>
</g>
<g>
	<polygon class="st0" points="443.6,493.3 431.5,507.1 419.4,493.3 419.4,430.6 431.5,416.8 443.6,430.6" transform="translate(-405, -400)"/>
</g>
<g>
	<polygon class="st0" points="448.4,522.3 434.6,510.2 448.4,498.1 511.1,498.1 524.9,510.2 511.1,522.3" transform="translate(-405, -400)"/>
</g>
<g>
	<polygon class="st0" points="448.4,425.8 434.6,413.7 448.4,401.6 511.1,401.6 524.9,413.7 511.1,425.8" transform="translate(-405, -400)"/>
</g>
<g>
	<polygon class="st0" points="419.4,529.8 431.5,516 443.6,529.8 443.6,592.6 431.5,606.4 419.4,592.6" transform="translate(-405, -400)"/>
</g>
<g>
	<polygon points="515.9,529.8 528,516 540.1,529.8 540.1,592.6 528,606.4 515.9,592.6" transform="translate(-405, -400)"/>
</g>
<g>
	<polygon class="st0" points="511.1,597.3 524.9,609.5 511.1,621.6 448.4,621.6 434.6,609.5 448.4,597.3" transform="translate(-405, -400)"/>
</g>
</svg>
