<svg version="1.1" xmlns="http://www.w3.org/2000/svg" xmlns:xlink="http://www.w3.org/1999/xlink" x="0px" y="0px"
	 viewBox="0 0 150 250" style="enable-background:new 0 0 150 250;" xml:space="preserve">
<style type="text/css">
	.st0{fill:#D1D3D4;}
	.st1{fill:#9B8579;}
</style>
<g>
	<polygon points="311.2,493.3 299,507.1 286.9,493.3 286.9,430.6 299,416.8 311.2,430.6" transform="translate(-176, -400)"/>
</g>
<g>
	<polygon points="214.6,493.3 202.5,507.1 190.4,493.3 190.4,430.6 202.5,416.8 214.6,430.6" transform="translate(-176, -400)"/>
</g>
<g>
	<polygon class="st0" points="219.4,522.3 205.6,510.2 219.4,498.1 282.1,498.1 295.9,510.2 282.1,522.3" transform="translate(-176, -400)"/>
</g>
<g>
	<polygon points="219.4,425.8 205.6,413.7 219.4,401.6 282.1,401.6 295.9,413.7 282.1,425.8" transform="translate(-176, -400)"/>
</g>
<g>
	<polygon points="190.4,529.8 202.5,516 214.6,529.8 214.6,592.6 202.5,606.4 190.4,592.6" transform="translate(-176, -400)"/>
</g>
<g>
	<polygon points="286.9,529.8 299,516 311.2,529.8 311.2,592.6 299,606.4 286.9,592.6" transform="translate(-176, -400)"/>
</g>
<g>
	<polygon points="282.1,597.3 295.9,609.5 282.1,621.6 219.4,621.6 205.6,609.5 219.4,597.3" transform="translate(-176, -400)"/>
</g>
</svg>
