<svg version="1.1" xmlns="http://www.w3.org/2000/svg" xmlns:xlink="http://www.w3.org/1999/xlink" x="0px" y="0px"
	 viewBox="0 0 150 250" style="enable-background:new 0 0 150 250;" xml:space="preserve">
<style type="text/css">
	.st0{fill:#D1D3D4;}
	.st1{fill:#9B8579;}
</style>
<g>
	<polygon class="st0" points="311.2,760.5 299,774.3 286.9,760.5 286.9,697.8 299,684 311.2,697.8" transform="translate(-176, -667)"/>
</g>
<g>
	<polygon points="214.6,760.5 202.5,774.3 190.4,760.5 190.4,697.8 202.5,684 214.6,697.8" transform="translate(-176, -667)"/>
</g>
<g>
	<polygon points="219.4,789.6 205.6,777.4 219.4,765.3 282.1,765.3 295.9,777.4 282.1,789.6" transform="translate(-176, -667)"/>
</g>
<g>
	<polygon points="219.4,693 205.6,680.9 219.4,668.8 282.1,668.8 295.9,680.9 282.1,693" transform="translate(-176, -667)"/>
</g>
<g>
	<polygon class="st0" points="190.4,797 202.5,783.3 214.6,797 214.6,859.8 202.5,873.6 190.4,859.8" transform="translate(-176, -667)"/>
</g>
<g>
	<polygon points="286.9,797 299,783.3 311.2,797 311.2,859.8 299,873.6 286.9,859.8" transform="translate(-176, -667)"/>
</g>
<g>
	<polygon points="282.1,864.6 295.9,876.7 282.1,888.8 219.4,888.8 205.6,876.7 219.4,864.6" transform="translate(-176, -667)"/>
</g>
</svg>
