<svg version="1.1" xmlns="http://www.w3.org/2000/svg" xmlns:xlink="http://www.w3.org/1999/xlink" x="0px" y="0px"
	 viewBox="0 0 150 250" style="enable-background:new 0 0 150 250;" xml:space="preserve">
<style type="text/css">
	.st0{fill:#D1D3D4;}
	.st1{fill:#9B8579;}
</style>
<g>
	<polygon points="1227.1,760.5 1215,774.3 1202.9,760.5 1202.9,697.8 1215,684 1227.1,697.8" transform="translate(-1092, -667)"/>
</g>
<g>
	<polygon points="1130.6,760.5 1118.5,774.3 1106.3,760.5 1106.3,697.8 1118.5,684 1130.6,697.8" transform="translate(-1092, -667)"/>
</g>
<g>
	<polygon points="1135.4,789.6 1121.6,777.4 1135.4,765.3 1198.1,765.3 1211.9,777.4 1198.1,789.6" transform="translate(-1092, -667)"/>
</g>
<g>
	<polygon points="1135.4,693 1121.6,680.9 1135.4,668.8 1198.1,668.8 1211.9,680.9 1198.1,693" transform="translate(-1092, -667)"/>
</g>
<g>
	<polygon class="st0" points="1106.3,797 1118.5,783.3 1130.6,797 1130.6,859.8 1118.5,873.6 1106.3,859.8" transform="translate(-1092, -667)"/>
</g>
<g>
	<polygon points="1202.9,797 1215,783.3 1227.1,797 1227.1,859.8 1215,873.6 1202.9,859.8" transform="translate(-1092, -667)"/>
</g>
<g>
	<polygon points="1198.1,864.6 1211.9,876.7 1198.1,888.8 1135.4,888.8 1121.6,876.7 1135.4,864.6" transform="translate(-1092, -667)"/>
</g>
</svg>
