<svg version="1.1" xmlns="http://www.w3.org/2000/svg" xmlns:xlink="http://www.w3.org/1999/xlink" x="0px" y="0px"
	 viewBox="0 0 150 250" style="enable-background:new 0 0 150 250;" xml:space="preserve">
<style type="text/css">
	.st0{fill:#D1D3D4;}
	.st1{fill:#9B8579;}
</style>
<g>
	<polygon class="st0" points="540.1,760.5 528,774.3 515.9,760.5 515.9,697.8 528,684 540.1,697.8" transform="translate(-405, -667)"/>
</g>
<g>
	<polygon points="443.6,760.5 431.5,774.3 419.4,760.5 419.4,697.8 431.5,684 443.6,697.8" transform="translate(-405, -667)"/>
</g>
<g>
	<polygon points="448.4,789.6 434.6,777.4 448.4,765.3 511.1,765.3 524.9,777.4 511.1,789.6" transform="translate(-405, -667)"/>
</g>
<g>
	<polygon points="448.4,693 434.6,680.9 448.4,668.8 511.1,668.8 524.9,680.9 511.1,693" transform="translate(-405, -667)"/>
</g>
<g>
	<polygon points="419.4,797 431.5,783.3 443.6,797 443.6,859.8 431.5,873.6 419.4,859.8" transform="translate(-405, -667)"/>
</g>
<g>
	<polygon points="515.9,797 528,783.3 540.1,797 540.1,859.8 528,873.6 515.9,859.8" transform="translate(-405, -667)"/>
</g>
<g>
	<polygon points="511.1,864.6 524.9,876.7 511.1,888.8 448.4,888.8 434.6,876.7 448.4,864.6" transform="translate(-405, -667)"/>
</g>
</svg>
