<?xml version="1.0" encoding="utf-8"?>
<svg version="1.1" xmlns="http://www.w3.org/2000/svg" xmlns:xlink="http://www.w3.org/1999/xlink" x="0px" y="0px"
	 viewBox="0 0 1400 980" style="enable-background:new 0 0 1400 980;" xml:space="preserve">
<style type="text/css">
	.st0{fill:#D1D3D4;}
	.st1{fill:#9B8579;}
</style>
<g id="_x31_">
	<g>
		<polygon points="311.2,493.3 299,507.1 286.9,493.3 286.9,430.6 299,416.8 311.2,430.6 		"/>
	</g>
	<g>
		<polygon points="214.6,493.3 202.5,507.1 190.4,493.3 190.4,430.6 202.5,416.8 214.6,430.6 		"/>
	</g>
	<g>
		<polygon class="st0" points="219.4,522.3 205.6,510.2 219.4,498.1 282.1,498.1 295.9,510.2 282.1,522.3 		"/>
	</g>
	<g>
		<polygon points="219.4,425.8 205.6,413.7 219.4,401.6 282.1,401.6 295.9,413.7 282.1,425.8 		"/>
	</g>
	<g>
		<polygon points="190.4,529.8 202.5,516 214.6,529.8 214.6,592.6 202.5,606.4 190.4,592.6 		"/>
	</g>
	<g>
		<polygon points="286.9,529.8 299,516 311.2,529.8 311.2,592.6 299,606.4 286.9,592.6 		"/>
	</g>
	<g>
		<polygon points="282.1,597.3 295.9,609.5 282.1,621.6 219.4,621.6 205.6,609.5 219.4,597.3 		"/>
	</g>
	<g>
		<polygon points="540.1,493.3 528,507.1 515.9,493.3 515.9,430.6 528,416.8 540.1,430.6 		"/>
	</g>
	<g>
		<polygon class="st0" points="443.6,493.3 431.5,507.1 419.4,493.3 419.4,430.6 431.5,416.8 443.6,430.6 		"/>
	</g>
	<g>
		<polygon class="st0" points="448.4,522.3 434.6,510.2 448.4,498.1 511.1,498.1 524.9,510.2 511.1,522.3 		"/>
	</g>
	<g>
		<polygon class="st0" points="448.4,425.8 434.6,413.7 448.4,401.6 511.1,401.6 524.9,413.7 511.1,425.8 		"/>
	</g>
	<g>
		<polygon class="st0" points="419.4,529.8 431.5,516 443.6,529.8 443.6,592.6 431.5,606.4 419.4,592.6 		"/>
	</g>
	<g>
		<polygon points="515.9,529.8 528,516 540.1,529.8 540.1,592.6 528,606.4 515.9,592.6 		"/>
	</g>
	<g>
		<polygon class="st0" points="511.1,597.3 524.9,609.5 511.1,621.6 448.4,621.6 434.6,609.5 448.4,597.3 		"/>
	</g>
	<g>
		<polygon points="769.1,493.3 757,507.1 744.9,493.3 744.9,430.6 757,416.8 769.1,430.6 		"/>
	</g>
	<g>
		<polygon class="st0" points="672.6,493.3 660.5,507.1 648.4,493.3 648.4,430.6 660.5,416.8 672.6,430.6 		"/>
	</g>
	<g>
		<polygon points="677.4,522.3 663.6,510.2 677.4,498.1 740.1,498.1 753.9,510.2 740.1,522.3 		"/>
	</g>
	<g>
		<polygon points="677.4,425.8 663.6,413.7 677.4,401.6 740.1,401.6 753.9,413.7 740.1,425.8 		"/>
	</g>
	<g>
		<polygon points="648.4,529.8 660.5,516 672.6,529.8 672.6,592.6 660.5,606.4 648.4,592.6 		"/>
	</g>
	<g>
		<polygon class="st0" points="744.9,529.8 757,516 769.1,529.8 769.1,592.6 757,606.4 744.9,592.6 		"/>
	</g>
	<g>
		<polygon points="740.1,597.3 753.9,609.5 740.1,621.6 677.4,621.6 663.6,609.5 677.4,597.3 		"/>
	</g>
	<g>
		<polygon points="998.1,493.3 986,507.1 973.9,493.3 973.9,430.6 986,416.8 998.1,430.6 		"/>
	</g>
	<g>
		<polygon class="st0" points="901.6,493.3 889.5,507.1 877.3,493.3 877.3,430.6 889.5,416.8 901.6,430.6 		"/>
	</g>
	<g>
		<polygon points="906.4,522.3 892.6,510.2 906.4,498.1 969.1,498.1 982.9,510.2 969.1,522.3 		"/>
	</g>
	<g>
		<polygon points="906.4,425.8 892.6,413.7 906.4,401.6 969.1,401.6 982.9,413.7 969.1,425.8 		"/>
	</g>
	<g>
		<polygon class="st0" points="877.3,529.8 889.5,516 901.6,529.8 901.6,592.6 889.5,606.4 877.3,592.6 		"/>
	</g>
	<g>
		<polygon points="973.9,529.8 986,516 998.1,529.8 998.1,592.6 986,606.4 973.9,592.6 		"/>
	</g>
	<g>
		<polygon points="969.1,597.3 982.9,609.5 969.1,621.6 906.4,621.6 892.6,609.5 906.4,597.3 		"/>
	</g>
	<g>
		<polygon points="1227.1,493.3 1215,507.1 1202.9,493.3 1202.9,430.6 1215,416.8 1227.1,430.6 		"/>
	</g>
	<g>
		<polygon points="1130.6,493.3 1118.5,507.1 1106.3,493.3 1106.3,430.6 1118.5,416.8 1130.6,430.6 		"/>
	</g>
	<g>
		<polygon points="1135.4,522.3 1121.6,510.2 1135.4,498.1 1198.1,498.1 1211.9,510.2 1198.1,522.3 		"/>
	</g>
	<g>
		<polygon class="st0" points="1135.4,425.8 1121.6,413.7 1135.4,401.6 1198.1,401.6 1211.9,413.7 1198.1,425.8 		"/>
	</g>
	<g>
		<polygon class="st0" points="1106.3,529.8 1118.5,516 1130.6,529.8 1130.6,592.6 1118.5,606.4 1106.3,592.6 		"/>
	</g>
	<g>
		<polygon points="1202.9,529.8 1215,516 1227.1,529.8 1227.1,592.6 1215,606.4 1202.9,592.6 		"/>
	</g>
	<g>
		<polygon class="st0" points="1198.1,597.3 1211.9,609.5 1198.1,621.6 1135.4,621.6 1121.6,609.5 1135.4,597.3 		"/>
	</g>
	<g>
		<polygon class="st0" points="311.2,760.5 299,774.3 286.9,760.5 286.9,697.8 299,684 311.2,697.8 		"/>
	</g>
	<g>
		<polygon points="214.6,760.5 202.5,774.3 190.4,760.5 190.4,697.8 202.5,684 214.6,697.8 		"/>
	</g>
	<g>
		<polygon points="219.4,789.6 205.6,777.4 219.4,765.3 282.1,765.3 295.9,777.4 282.1,789.6 		"/>
	</g>
	<g>
		<polygon points="219.4,693 205.6,680.9 219.4,668.8 282.1,668.8 295.9,680.9 282.1,693 		"/>
	</g>
	<g>
		<polygon class="st0" points="190.4,797 202.5,783.3 214.6,797 214.6,859.8 202.5,873.6 190.4,859.8 		"/>
	</g>
	<g>
		<polygon points="286.9,797 299,783.3 311.2,797 311.2,859.8 299,873.6 286.9,859.8 		"/>
	</g>
	<g>
		<polygon points="282.1,864.6 295.9,876.7 282.1,888.8 219.4,888.8 205.6,876.7 219.4,864.6 		"/>
	</g>
	<g>
		<polygon class="st0" points="540.1,760.5 528,774.3 515.9,760.5 515.9,697.8 528,684 540.1,697.8 		"/>
	</g>
	<g>
		<polygon points="443.6,760.5 431.5,774.3 419.4,760.5 419.4,697.8 431.5,684 443.6,697.8 		"/>
	</g>
	<g>
		<polygon points="448.4,789.6 434.6,777.4 448.4,765.3 511.1,765.3 524.9,777.4 511.1,789.6 		"/>
	</g>
	<g>
		<polygon points="448.4,693 434.6,680.9 448.4,668.8 511.1,668.8 524.9,680.9 511.1,693 		"/>
	</g>
	<g>
		<polygon points="419.4,797 431.5,783.3 443.6,797 443.6,859.8 431.5,873.6 419.4,859.8 		"/>
	</g>
	<g>
		<polygon points="515.9,797 528,783.3 540.1,797 540.1,859.8 528,873.6 515.9,859.8 		"/>
	</g>
	<g>
		<polygon points="511.1,864.6 524.9,876.7 511.1,888.8 448.4,888.8 434.6,876.7 448.4,864.6 		"/>
	</g>
	<g>
		<polygon points="769.1,760.5 757,774.3 744.9,760.5 744.9,697.8 757,684 769.1,697.8 		"/>
	</g>
	<g>
		<polygon class="st0" points="672.6,760.5 660.5,774.3 648.4,760.5 648.4,697.8 660.5,684 672.6,697.8 		"/>
	</g>
	<g>
		<polygon class="st0" points="677.4,789.6 663.6,777.4 677.4,765.3 740.1,765.3 753.9,777.4 740.1,789.6 		"/>
	</g>
	<g>
		<polygon points="677.4,693 663.6,680.9 677.4,668.8 740.1,668.8 753.9,680.9 740.1,693 		"/>
	</g>
	<g>
		<polygon class="st0" points="648.4,797 660.5,783.3 672.6,797 672.6,859.8 660.5,873.6 648.4,859.8 		"/>
	</g>
	<g>
		<polygon points="744.9,797 757,783.3 769.1,797 769.1,859.8 757,873.6 744.9,859.8 		"/>
	</g>
	<g>
		<polygon class="st0" points="740.1,864.6 753.9,876.7 740.1,888.8 677.4,888.8 663.6,876.7 677.4,864.6 		"/>
	</g>
	<g>
		<polygon points="998.1,760.5 986,774.3 973.9,760.5 973.9,697.8 986,684 998.1,697.8 		"/>
	</g>
	<g>
		<polygon points="901.6,760.5 889.5,774.3 877.3,760.5 877.3,697.8 889.5,684 901.6,697.8 		"/>
	</g>
	<g>
		<polygon points="906.4,789.6 892.6,777.4 906.4,765.3 969.1,765.3 982.9,777.4 969.1,789.6 		"/>
	</g>
	<g>
		<polygon points="906.4,693 892.6,680.9 906.4,668.8 969.1,668.8 982.9,680.9 969.1,693 		"/>
	</g>
	<g>
		<polygon points="877.3,797 889.5,783.3 901.6,797 901.6,859.8 889.5,873.6 877.3,859.8 		"/>
	</g>
	<g>
		<polygon points="973.9,797 986,783.3 998.1,797 998.1,859.8 986,873.6 973.9,859.8 		"/>
	</g>
	<g>
		<polygon points="969.1,864.6 982.9,876.7 969.1,888.8 906.4,888.8 892.6,876.7 906.4,864.6 		"/>
	</g>
	<g>
		<polygon points="1227.1,760.5 1215,774.3 1202.9,760.5 1202.9,697.8 1215,684 1227.1,697.8 		"/>
	</g>
	<g>
		<polygon points="1130.6,760.5 1118.5,774.3 1106.3,760.5 1106.3,697.8 1118.5,684 1130.6,697.8 		"/>
	</g>
	<g>
		<polygon points="1135.4,789.6 1121.6,777.4 1135.4,765.3 1198.1,765.3 1211.9,777.4 1198.1,789.6 		"/>
	</g>
	<g>
		<polygon points="1135.4,693 1121.6,680.9 1135.4,668.8 1198.1,668.8 1211.9,680.9 1198.1,693 		"/>
	</g>
	<g>
		<polygon class="st0" points="1106.3,797 1118.5,783.3 1130.6,797 1130.6,859.8 1118.5,873.6 1106.3,859.8 		"/>
	</g>
	<g>
		<polygon points="1202.9,797 1215,783.3 1227.1,797 1227.1,859.8 1215,873.6 1202.9,859.8 		"/>
	</g>
	<g>
		<polygon points="1198.1,864.6 1211.9,876.7 1198.1,888.8 1135.4,888.8 1121.6,876.7 1135.4,864.6 		"/>
	</g>
	<g>
		<circle cx="471.5" cy="183.3" r="15.3"/>
	</g>
	<g>
		<circle cx="471.5" cy="237.4" r="15.3"/>
	</g>
</g>
</svg>
